# xmcd CD database file
#
# Track frame offsets:
#	183
#	15163
#	30153
#	46638
#	61735
#	75775
#	88005
#	99713
#	114303
#	128163
#	142650
#	155815
#	170173
#	183740
#
# Disc length: 2628 seconds
#
# Revision: 0
# Processed by: cddbd v1.5.1PL0 Copyright (c) Steve Scherf et al.
# Submitted via: CDex 1.51
#
DISCID=9c0a420e
DTITLE=Engelbert Fumperdink - Greatest Hits
DYEAR=1900
DGENRE=Pop
TTITLE0=Release Me
TTITLE1=Love Me with All of Your Heart
TTITLE2=Can't Take My Eyes Off of You
TTITLE3=A Man Without Love
TTITLE4=By the Time I Get toPhoenix
TTITLE5=Ten Guiters
TTITLE6=Up Up and Away
TTITLE7=Spanish Eyes
TTITLE8=There's a Kind of Hush
TTITLE9=Les Bicy Clettesde Belsize
TTITLE10=There Goes My Everything
TTITLE11=The Way It Used to Be
TTITLE12=Without You
TTITLE13=The Last Waltz
EXTD=
EXTT0=
EXTT1=
EXTT2=
EXTT3=
EXTT4=
EXTT5=
EXTT6=
EXTT7=
EXTT8=
EXTT9=
EXTT10=
EXTT11=
EXTT12=
EXTT13=
PLAYORDER=
